# xmcd
#
# Track frame offsets:
#	150
#	13437
#	32336
#	44059
#	57533
#	69752
#	82742
#	97651
#	108471
#	134074
#	146269
#	157909
#	172516
#	187807
#	202262
#	217064
#	233701
#	249722
#
# Disc length: 3614 seconds
# Revision: 3
# Processed by: cddbd v1.5.2PL0 Copyright (c) Steve Scherf et al.
# Submitted via: dBpowerAMP V12.0
#
DISCID=f10e1c12
DTITLE=César Menotti and Fabiano - Palavras de Amor ao Vivo
DYEAR=2005
DGENRE=Sertanejo Pop
TTITLE0=Como Um Anjo
TTITLE1=Tentei Te Esquecer/Coração Está Em Pedaços
TTITLE2=Fica Comigo
TTITLE3=Sem Medo de Ser Feliz
TTITLE4=Mensagem Pra Ela
TTITLE5=Esperando Na Janela
TTITLE6=Leilão
TTITLE7=Aqui Não
TTITLE8=Lugar Melhor Que BH/Magia E Mistério
TTITLE9=Bão Tamém
TTITLE10=Sempre Seu Homem
TTITLE11=Paixão Mineira
TTITLE12=Amargurado
TTITLE13=Na Hora Do Adeus
TTITLE14=Caso Marcado
TTITLE15=Nova York/O Que Tiver Que Vir, Virá
TTITLE16=Me Apaixonei (A Primeira Vez Que Eu Te VI)
TTITLE17=Cana Verde/Erguei as Mãos
EXTD=
EXTT0=
EXTT1=
EXTT2=
EXTT3=
EXTT4=
EXTT5=
EXTT6=
EXTT7=
EXTT8=
EXTT9=
EXTT10=
EXTT11=
EXTT12=
EXTT13=
EXTT14=
EXTT15=
EXTT16=
EXTT17=
PLAYORDER=
